<?xml version="1.0" encoding="UTF-8"?>
<svg xmlns="http://www.w3.org/2000/svg" xmlns:xlink="http://www.w3.org/1999/xlink" viewBox="0 0 640.97 201.89">
  <defs>
    <style>
      .cls-1 {
        fill: url(#linear-gradient);
      }

      .cls-1, .cls-2, .cls-3, .cls-4, .cls-5, .cls-6, .cls-7, .cls-8, .cls-9, .cls-10, .cls-11, .cls-12, .cls-13, .cls-14, .cls-15, .cls-16, .cls-17, .cls-18, .cls-19, .cls-20, .cls-21, .cls-22, .cls-23, .cls-24, .cls-25, .cls-26, .cls-27, .cls-28, .cls-29, .cls-30 {
        stroke-width: 0px;
      }

      .cls-1, .cls-31 {
        opacity: .15;
      }

      .cls-1, .cls-31, .cls-32, .cls-33, .cls-34 {
        mix-blend-mode: overlay;
      }

      .cls-2 {
        fill: url(#Burlap);
      }

      .cls-3, .cls-35 {
        fill: none;
      }

      .cls-32 {
        opacity: .19;
      }

      .cls-33 {
        opacity: .26;
      }

      .cls-4 {
        fill: url(#radial-gradient);
      }

      .cls-5 {
        fill: url(#linear-gradient-11);
      }

      .cls-6 {
        fill: url(#linear-gradient-12);
      }

      .cls-7 {
        fill: url(#linear-gradient-13);
      }

      .cls-8 {
        fill: url(#linear-gradient-10);
      }

      .cls-9 {
        fill: url(#linear-gradient-17);
      }

      .cls-10 {
        fill: url(#linear-gradient-16);
      }

      .cls-11 {
        fill: url(#linear-gradient-19);
      }

      .cls-12 {
        fill: url(#linear-gradient-15);
      }

      .cls-13 {
        fill: url(#linear-gradient-18);
      }

      .cls-14 {
        fill: url(#linear-gradient-14);
      }

      .cls-15 {
        fill: url(#linear-gradient-20);
      }

      .cls-16, .cls-17 {
        opacity: .51;
      }

      .cls-16, .cls-17, .cls-29 {
        fill: #563e22;
      }

      .cls-16, .cls-36 {
        mix-blend-mode: multiply;
      }

      .cls-35 {
        stroke: #000;
        stroke-width: .5px;
      }

      .cls-17 {
        mix-blend-mode: screen;
      }

      .cls-18 {
        fill: url(#USGS_21_Intricate_Surface);
      }

      .cls-19 {
        fill: url(#linear-gradient-4);
      }

      .cls-20 {
        fill: url(#linear-gradient-2);
      }

      .cls-21 {
        fill: url(#linear-gradient-3);
      }

      .cls-22 {
        fill: url(#linear-gradient-8);
      }

      .cls-23 {
        fill: url(#linear-gradient-9);
      }

      .cls-24 {
        fill: url(#linear-gradient-7);
      }

      .cls-25 {
        fill: url(#linear-gradient-5);
      }

      .cls-26 {
        fill: url(#linear-gradient-6);
      }

      .cls-37 {
        isolation: isolate;
      }

      .cls-36 {
        opacity: .42;
      }

      .cls-28 {
        fill: #4b361c;
      }

      .cls-30 {
        fill: #a67c52;
      }
    </style>
    <linearGradient id="linear-gradient" x1="38.04" y1="-157.08" x2="684.56" y2="462.36" gradientTransform="translate(206.95 434.02) rotate(-90)" gradientUnits="userSpaceOnUse">
      <stop offset="0" stop-color="#fffcc7"/>
      <stop offset=".09" stop-color="#f2efbd" stop-opacity=".95"/>
      <stop offset=".25" stop-color="#d0cea2" stop-opacity=".82"/>
      <stop offset=".47" stop-color="#999878" stop-opacity=".6"/>
      <stop offset=".74" stop-color="#4f4e3d" stop-opacity=".31"/>
      <stop offset="1" stop-color="#000" stop-opacity="0"/>
    </linearGradient>
    <radialGradient id="radial-gradient" cx="320.49" cy="113.54" fx="320.49" fy="113.54" r="580.85" gradientTransform="translate(0 43.3) scale(1 .62)" gradientUnits="userSpaceOnUse">
      <stop offset="0" stop-color="#29160b"/>
      <stop offset=".13" stop-color="#261b14"/>
      <stop offset=".36" stop-color="#20282f"/>
      <stop offset=".65" stop-color="#163e59"/>
      <stop offset=".99" stop-color="#085c94"/>
      <stop offset="1" stop-color="#085e97"/>
    </radialGradient>
    <pattern id="USGS_21_Intricate_Surface" data-name="USGS 21 Intricate Surface" x="0" y="0" width="54" height="54" patternTransform="translate(-24.03 -349.81)" patternUnits="userSpaceOnUse" viewBox="0 0 54 54">
      <g>
        <rect class="cls-3" width="54" height="54"/>
        <g>
          <path class="cls-27" d="m22.58,55.48c-.75.5-1.31,4.69-2.06,5.25-.29.22-.75.69-.75.94,0,.5-.27.44-.27.94,0,1-.74,2.31-2.12,2.02-.36-.08-.67-.99,1.38-2.15.22-.12-.02-.91.14-1.34,2-5.28,3.87-9.6,4.43-8.28l-.75,2.62Z"/>
          <path class="cls-27" d="m28.33,56.49c-.16-.48-.43-.76-.43-1.24-1.1.23-2.19.45-3.28.68-.89-1.01,1.12-1.39,2.49-2.05.5-.24,2.16-1.3,2.71-1.42-.19,1.09-1.15,2.72-1.47,4.03Z"/>
          <path class="cls-27" d="m48.75,59.06c.2.73-.18,1.32-.76,1.4-.86.13-1.99.42-2.01.86-.08,1.58-1.19,2.56-2.47,2.99,1.2-2.3,2.92-3.81,5.17-5.37.25-.17-.05-.94.15-1.35.66-1.33,2.65.12,2.84-2.29.02-.23-.41-.49-.66-.74,2.11.6,1.86-2.13,3.75-2.25v1.5c-.88-.15-1.53.37-2.26.73-2.31,1.14.09,4.05-3.74,4.52Z"/>
          <path class="cls-27" d="m3.94,60.56c-.35-1.95,2.65-5.85,3.56-7.5.5.5.33,1.28.25,1.69-.38,1.98-2.63,3.29-2.61,5.85-.56.94-.5,1.56-2.14,1.46l.94-1.5Z"/>
          <path class="cls-27" d="m11.44,55.31c.15-.88-.35-1.55-.75-2.25.73-.2,1.34.2,1.4.76,0,.55-.4.99-.65,1.49Z"/>
          <path class="cls-27" d="m2.25,55.12c-1.79-.24-.23-1.59-.75-2.25,2.19.11-.57,1.85.75,2.25Z"/>
          <path class="cls-27" d="m13.6,56.2c1.65-1.24,2.26-4.91,4.15-5.7-1.52,1.15-1.67,4.89-2.88,6.19-2.32,2.49-5.57,3.82-7.29,6.92-.62,1.12.7,2.71-.83,3.71-.26-2.43-.23-5.03,1.66-6.56,1.95-1.58,3.21-3.07,5.19-4.56Z"/>
          <path class="cls-27" d="m36.5,55.75c-.44.49-1.18-.08-1.32-.68-.23-.98-1.2-2.61-.08-2.98.86.81,1.93.8,3,.75-2.58-.04-.89,2.11-1.6,2.91Z"/>
          <path class="cls-27" d="m43.97,56.45c.16.3.75-.1,1.03-.45-1.06-.61.11-2.17-1.2-2.39-.48-.08-1.04.48-1.73.38.57,1.1,1.28,1.33,1.89,2.46Z"/>
        </g>
        <path class="cls-27" d="m-5.25,59.06c.2.73-.18,1.32-.76,1.4-.86.13-1.99.42-2.01.86-.08,1.58-1.19,2.56-2.47,2.99,1.2-2.3,2.92-3.81,5.17-5.37.25-.17-.05-.94.15-1.35.66-1.33,2.65.12,2.84-2.29.02-.23-.41-.49-.66-.74,2.11.6,1.86-2.13,3.75-2.25v1.5c-.88-.15-1.53.37-2.26.73-2.31,1.14.09,4.05-3.74,4.52Z"/>
        <g>
          <path class="cls-27" d="m53.27,43.18c.83-.31,1.72.69,2.13.5,2.15-1.04,1.96-3.57,4.67-1.39.03.03.61-.43.58-.64-.12-.76-.91-1.41-.6-2.25.21-.59.8-.7,1.41-.9,1.86-.62-.47-2.49,2.19-3.82.3-.15.34-1.41-.02-1.97-.79-1.26-2.34-.79-3.63-.83,1.31.12,2.19-.61,3-1.5-.25.5-.5,1-.75,1.5,1,.5,2,1,3,1.5-.5.25-1.23.41-1.38.8-.35.87.15,2.08-.25,2.89-.1.2-1.05-.1-1.27.15-1.22,1.43-.59,3.97-1.83,4.85-2,1.41-6.05.95-7.03,4.15-.17.56,1.14,1.27,2.01,1.32.99.06,1.85-.68,2.24-2.15-.15.88.22,1.86.81,2.09,1.47.57,1.36-2.45,2.9-1.96.38.12.79.95.66,1.33-.13.38-.87.71-1.37.71-.25,0-.59-.62-.71-.56-1.54.66-3.58.47-4.47,2.18-.21.4-.07.96-.07,1.46-.82-.05-2.15.29-2.06-.73.09-.96.97-1.98.46-2.97-.21-.41-.9-.55-1.4-.8l.77-2.95Z"/>
          <path class="cls-27" d="m54.75,34.12c-1.59.17-.68-.91-.75-1.5.25.5.5,1,.75,1.5Z"/>
          <path class="cls-27" d="m54.38,9.38c-.1,2.45-.17,1.65-2.62,2.44.5-.25,1.99-.95,2.1-1.32.24-.78-.09-1.14.32-1.84-.19-.75-1.48-.75-.8-1.78,1.01-1.53.21-3.75,2.13-4.53.43-.18.24.47.74.47,0,2.06-1.78,4.35-1.88,6.56Z"/>
          <path class="cls-27" d="m52.5,37.31c.52-1.46,1.83-1.35,3-1.5-.73,1.04-1.9,1.21-3,1.5Z"/>
        </g>
        <g>
          <path class="cls-27" d="m5.62,29.06c-.23.08-.49.03-.74.03.36-.85.72-1.68,1.5-2.25.25.5.75,1.08.62,1.46-.13.38-.85.59-1.38.77Z"/>
          <path class="cls-27" d="m22.58,1.48c-.75.5-1.31,4.69-2.06,5.25-.29.22-.75.69-.75.94,0,.5-.27.44-.27.94,0,1-.74,2.31-2.12,2.02-.36-.08-.67-.99,1.38-2.15.22-.12-.02-.91.14-1.34,2-5.28,3.87-9.6,4.43-8.28l-.75,2.62Z"/>
          <path class="cls-27" d="m14.26,9.99c-.72-.24-1.69-1.07-1.59-1.32.92-2.33,1.82-3.3,2.75-3.34.94-.04-1.22,1.44-1.7,2.47-.48,1.03,1.94,2.47,1.52,3.09-.42.62-.46-.32-.98-.9Z"/>
          <path class="cls-27" d="m12,11.06c-.58,1.92-.39,2.11-3,3,.76-.23.56.06.75-2.25.02-.29,1.75-.5,2.25-.75Z"/>
          <path class="cls-27" d="m9.73,20.06c-.21.52-.45,1.32-.75,1.35-2,.18-2.4,1.71-2.99,3.16,1.3.36,2.23,1.66,3.75,1.5-.7.4-1.49,1.13-2.17.64-.25-.18.02-1.18-.13-1.24-2.87-.98-2.15-3.14-.58-4.52.16-.14,1.03.64,1.3.48,1.26-.71-.48-4.55.83-3.61.65.7,1.68,1.45,2.83-.12.5-.68.17-1.88.17-2.88.38-.75,2.06-.32,2.1.75.09,2.58-3.46,2.2-4.37,4.49Z"/>
          <path class="cls-27" d="m18.74,17.8c-.23.29-.49.68-.74.68-.25,0-.5-.42-.75-.67.5-.25,1.32-.47,1.34-.76.12-1.46-.23-3.15-2.09-3.74,3.04-.91,3.88,2.43,2.24,4.49Z"/>
          <path class="cls-27" d="m21.92,19.33c.31-3.9-.55-6.01,3.58-4.51.94,1.31-1.82.21-2.12.82-.15.31,1.68,1.05,1.55,1.43-.13.38-2.11.39-2.35.8-.43.75.25,1.5.66,2.2-.5-.25-1.34-.52-1.33-.74Z"/>
          <path class="cls-27" d="m26.21,19.96c-.12.05-.46-.4-.71-.65.8-.43,1.3-2.11,2.08-1.33.74.75-.58,2.27-1.37,1.98Z"/>
          <path class="cls-27" d="m15.5,26.75c-.44.49-1.18-.08-1.32-.68-.23-.98-1.2-2.61-.08-2.98.86.81,1.93.8,3,.75-2.58-.04-.89,2.11-1.6,2.91Z"/>
          <path class="cls-27" d="m31,16.12c2.79-.38,3.05-2.78,4.58-4.23.27-.26,1.03.08,1.35-.17.87-.68,1.03-1.8.82-2.92,1.28,1.66,2.63-.62,3.55.22,1.68,1.53,1.51,4,3.95,5.03-.39,1.91-2.09,2.94-3,4.5.81-2.62,2.84-5.43-.75-6.75.25-.25.67-.5.67-.75,0-.5-.32-1.22-.71-1.39-.94-.39-2.3-.31-2.84.7-.95,1.77-1.52,1.91-2.9,3.18-.67.61.03,2.41-.97,3.51-.25-.25-.63-.83-.73-.65-.96,1.78-2.27,1.59-2.64.46l-.38-.75Z"/>
          <path class="cls-27" d="m30.43,12.32h0c-.2-.15-1.26.41-1.27.69-.08,1.62-.38,3.28-2.41,2.99,2.41-1.96,3.1-4.92,4.41-7.55.44-.9-2.66-3.14-1.41-3.89l2.25.94c.65-.7,1.42-1.16,3,0-1.07-.04-2.33-.2-2.89.81-.93,1.65-.12,2.58-.27,4.43-.02.29-1.07.42-1.22.81-.08.23-.2.57-.19.78Z"/>
          <path class="cls-27" d="m28.33,2.49c-.16-.48-.43-.76-.43-1.24-1.1.23-2.19.45-3.28.68-.89-1.01,1.12-1.39,2.49-2.05.5-.24,2.16-1.3,2.71-1.42-.19,1.09-1.15,2.72-1.47,4.03Z"/>
          <path class="cls-27" d="m38.25,41.06c.48-1.06,1.43-.7,2.25-.75-.52.93-1.36.91-2.25.75Z"/>
          <path class="cls-27" d="m47.57,2.07c-.45,4.31-.57,0-.82,0,.71-.28,1.75-.25,1.5-1.5-.25.5-.63.98-.68,1.51Z"/>
          <path class="cls-27" d="m48.75,5.06c.2.73-.18,1.32-.76,1.4-.86.13-1.99.42-2.01.86-.08,1.58-1.19,2.56-2.47,2.99,1.2-2.3,2.92-3.81,5.17-5.37.25-.17-.05-.94.15-1.35.66-1.33,2.65.12,2.84-2.29.02-.23-.41-.49-.66-.74,2.11.6,1.86-2.13,3.75-2.25V-.19c-.88-.15-1.53.37-2.26.73-2.31,1.14.09,4.05-3.74,4.52Z"/>
          <path class="cls-27" d="m50.94,11.05c-.2.91-.59,1.96-1.47,2.12-.7.13-1.47,1.07-2.22-1.36,2.33.74,2.99-1.21,3.75-3,0,.75.11,1.49-.06,2.24Z"/>
          <path class="cls-27" d="m47.32,18.6c-.2.41-.07.97-.07,1.47-.81-.86-1.13-2.13-.58-2.88.28-.38,1.33-.12,2.08-.12-.5.5-1.13.92-1.43,1.53Z"/>
          <path class="cls-27" d="m34.75,22.31c.05-.5.26-1.24.06-1.36-.77-.48-1.91-.32-2.91-.42.28-.23.52-.55.83-.62.87-.22,1.72.87,2.03.69,1.95-1.12,4.17-4.7,5.79-6.33.23.28-.96,2.6-1.01,2.66-1.8,2.24-3.06,3.21-4.79,5.38Z"/>
          <path class="cls-27" d="m38.78,24.23c-.66-.43-1.98-.4-1.35-1.47,1.29-2.16,4.12-2.18,5.88-3.83.44,2.11,3.16,1.61,4.42,3.07.25.3,0,.93.12,1.42.18.77.21,1.76,1.46,1.51-.25.25-.5.5-.75.75-1.33-1.96-1.62.22-3,0,.5-.25,1.25-.41,1.37-.79.37-1.19.47-2.66-.65-3.67-.41-.37-1.11-.81-1.39-.65-.9.51-1.04,1.74-.83,2.86-1.22-1.13-1.79-3.79-3.62-2.77-.63.35-1.33,1.24-2.14,2.22-1.09,1.33,2.43.94,2.02,2.81-.5-.5-.92-1.07-1.53-1.46Z"/>
          <path class="cls-27" d="m31.85,24.51c.14.18,1.04-.3,1.25-.09.46.47,1.83,1.12,1.98,1.86.44-.34,1.17-.66,1.18-1.03,0-.97-2.46-1.16-3.88-1.65-.68-.24-1.19-1.04-1.21-1.94.19.98.14,2.14.69,2.85Z"/>
          <path class="cls-27" d="m28.41,24.09c.49,1.61-.84,1.1-1.41.16-.38-.94-.92-3.74,1.5-3.85.24,0,.5.41.75.66-.53.45-2.55-2.56-.84,3.03Z"/>
          <path class="cls-27" d="m3.94,6.56c-.35-1.95,2.65-5.85,3.56-7.5.5.5.33,1.28.25,1.69-.38,1.98-2.63,3.29-2.61,5.85-.56.94-.5,1.56-2.14,1.46l.94-1.5Z"/>
          <path class="cls-27" d="m1.25,14.38c2.29-1.26-.03-1.4,2.69-2.56,1.31.38,1.6,1.98,1.69,3.38.02.32-.38,1.38-.38,1.88-.25-.5-.5-.99-.75-1.5-.26-.51-.45-1.78-.62-1.81-1.38-.25-2.62.62-2.62.62Z"/>
          <path class="cls-27" d="m17.12,2.38V.88c.7.41,1.37.9,2.25.75-.75.25-1.5.5-2.25.75Z"/>
          <path class="cls-27" d="m3.84,21.41c.49,1.61-.84,1.09-1.41.16-.38-.94-.92-3.74,1.5-3.85.24-.01.49.41.75.66-.53.45-2.55-2.56-.84,3.03Z"/>
          <path class="cls-27" d="m-.73,43.18c.83-.31,1.72.69,2.13.5,2.15-1.04,1.96-3.57,4.67-1.39.03.03.61-.43.58-.64-.12-.76-.91-1.41-.6-2.25.21-.59.8-.7,1.41-.9,1.86-.62-.47-2.49,2.19-3.82.3-.15.34-1.41-.02-1.97-.79-1.26-2.34-.79-3.63-.83,1.31.12,2.19-.61,3-1.5-.25.5-.5,1-.75,1.5,1,.5,2,1,3,1.5-.5.25-1.23.41-1.38.8-.35.87.15,2.08-.25,2.89-.1.2-1.05-.1-1.27.15-1.22,1.43-.59,3.97-1.83,4.85-2,1.41-6.05.95-7.03,4.15-.17.56,1.14,1.27,2.01,1.32.99.06,1.85-.68,2.24-2.15-.15.88.22,1.86.81,2.09,1.47.57,1.36-2.45,2.9-1.96.38.12.79.95.66,1.33-.13.38-.87.71-1.37.71-.25,0-.59-.62-.71-.56-1.54.66-3.58.47-4.47,2.18-.21.4-.07.96-.07,1.46-.82-.05-2.15.29-2.06-.73.09-.96.97-1.98.46-2.97-.21-.41-.9-.55-1.4-.8l.77-2.95Z"/>
          <path class="cls-27" d="m10.21,50.63c.39-.14.54-.88.79-1.38.5.25,1,.5,1.5.75,1.33-3.25,3.59-7.42,7.5-7.5v1.5c-.88-.15-1.77.2-2.13.82-.68,1.19,1.55,1.87-.12,3.68-.02-1.3.41-3.13-.83-3.5-1.5-.45-2.48,1.86-2.17,3.5-.5,0-1.27-.13-1.36.07-.92,1.95-3.3,2.38-3.89,4.43-1.23-1.35-3.39-1.65-3.75-3.75,1.83-.49,2.83,1.97,4.46,1.38Z"/>
          <path class="cls-27" d="m.75,34.12c-1.59.17-.68-.91-.75-1.5.25.5.5,1,.75,1.5Z"/>
          <path class="cls-27" d="m4.62,34.04c.61.81.79,1.45.63,2.34-.5-.25-1.34-.51-1.33-.74.07-1.67-1.5-2.87-.92-4.51,1.04.73.96,2.03,1.62,2.91Z"/>
          <path class="cls-27" d="m.75,29.62c-.21-1.67,1.11-.28,1.5-.75-.5.25-1,.5-1.5.75Z"/>
          <path class="cls-27" d="m14.33,31.13c-.13,2.54,1.82,3.96,3.67,5.25-.57-.77-1.38-1.32-2.26-1.41-.23-.02-.49.57-.74.57-.5,0-1.31-.38-1.34-.68-.13-1.45-.78-2.94.45-4.59.16-.21-.36-.9-.61-1.4-.5.25-1,.5-1.5.75-.5-1-1-2-1.5-3,2.28.32,2.59,2.99,4.5,3.75-.25.25-.66.49-.67.75Z"/>
          <path class="cls-27" d="m19.14,34.59c1.27.13,1.25-.95,1.25-1.64,0-.73-.45-1,1.18-2.58.32-.31.38-1.38.72-2.12.28.23.54.45.82.68-.47.3-1.15.51-1.32.93-.24.64.32,1.66-.03,2.08-.58.7-1.82,1.06-1.79,2.57,0,.23.66.53.62.63-.42,1.07-.5,2.04-.35,3.1-1.54-.87-1.01-2.36-1.11-3.66Z"/>
          <path class="cls-27" d="m26.47,31.78c-1.25,1.56-2.87-.09-3.77,1.91,1.31-.46.53.35,2.95.78-.06-.56-.29-1.4-.09-1.52,2.43-1.4,1.17-4.49,3.04-6.39-.35-.08-.69-.15-1.04-.23.06.56-.71,2.93-.93,3.07-1.72,1.13.92,1.03-.16,2.38Z"/>
          <path class="cls-27" d="m21.15,40.69c-1.82-1.47-1.77.4-3.15.18.25-.5.5-1,.75-1.5,1.28,1.66,2.58-.61,3.57.21.79.65-.95,1.29-1.18,1.11Z"/>
          <path class="cls-27" d="m22.63,44.71c-.01.28-1.04.4-1.23.81-1.04,2.16-.33,2.76.74,4.43-.73.2-1.31-.18-1.41-.76-.21-1.26.59-1.16-.72-2.44-.38-.37,1.33-1.34,1.65-2.18.62-1.61,1.95-2.09,2.79-3.51.29-.49,1.27.17,1.19.63-.29,1.68-2.82-.57-3.01,3.02Z"/>
          <path class="cls-27" d="m23.04,8.01c-.41-.28.31-.92.89-1.18.65,1.5,3.21.43,3.24,2.14.01.63-.94,1.18-.95,2.08-1.49-1.01-1.66-1.97-3.18-3.04Z"/>
          <path class="cls-27" d="m29.25,40.5c.75,1.64-1.22,1.04-1.51,1.83-1.08-1.91,1.87-.5,1.51-1.83Z"/>
          <path class="cls-27" d="m31.09,41.29c.51.25,1.01.49,1.51.73.24-.5.75-1.11.6-1.45-1.01-2.15.31-4.38.96-6.38.98.42,1.77-.03,2.17-.81.92-1.8,2.85-4.58,3.05-6.69-.55.11-1.41.11-1.48.37-.92,3.2-3.56,8.13-7.14,8.94-.12.03-.21.62-.11.93.28.85,1.47.86,1.75,1.42.54,1.07-.61,2.03-1.3,2.93Z"/>
          <path class="cls-27" d="m29.37,31.88c.12.49-.3,1.11.24,1.64.88-2.17.92-4.64,3.28-6.27-.95-.67-1.59.12-2.32.49,1.14,1.76-1.67,2.32-1.21,4.14Z"/>
          <path class="cls-27" d="m33.81,46.91c-.59,1.15,1.46,2.89,2.13,2.73.8-.2,2.02-.79,1.56-2.76,3.07.16,6.8,3.27,4.31,5.82-.53.54-1.85-.17-2.81-.57,1.7-.29,2.83-2.22,2.11-3.68-.3-.61-1.22-.91-2.12-.85-2.02.15-1.12,2-2.28,2.99-.42.36-.98.73-1.46.69-.88-.07-1.55-.89-2.32-1.27-.31-.15-1.1.25-1.34.67-.44.75-.28,1.67.66,2.2-1.26.26-1.47-.9-1.34-1.46.32-1.38,2.83-1.19,2.77-3.04-.03-1.01-.71-1.86-2.18-2.25,3.29.7,2.51-2.94,4.86-3.74,1.49-.51.78.81.64,1.37-.38,1.45-2.52,1.85-3.19,3.16Z"/>
          <path class="cls-27" d="m38.76,37.67c-.54.14-1.01.46-1.51.71,1.21-.85.05-2.11,2.14-3.21.5-.27.3-1.51-.64-2.04.25-.25.5-.5.75-.75-.34,1.84.4,3.52.75,5.25-.5,0-1.01-.08-1.49.04Z"/>
          <path class="cls-27" d="m44.17,34.38c0,.5-.41,1-.67,1.5-.25-.25-.7-.6-.65-.7.52-1.03.69-1.98.65-3.05.25.75.67,1.5.67,2.25Z"/>
          <path class="cls-27" d="m43.12,28.67c-1.27.32-1.38-.83-1.38-1.48,0-.53.82-1.14,1.29-.66.51.51,0,1.7,2.34,1.41-.75.25-1.47.53-2.26.73Z"/>
          <path class="cls-27" d="m47.12,29.13c-.7.8-1.04,2.95-1.99,1.99-.97-.97,1.12-1.36,1.99-1.99Z"/>
          <path class="cls-27" d="m47.08,49.09c-.22.94-.5,2.77-2.02,2.14-.18-.07-.06-.85-.06-1.36,1.27.07,2.73-.32,2.83-2.26.01-.22-1.11-.42-1.18-.77-.15-.69-1.08-1.47,1.35-2.22-1.04,1.37-.56,2.96-.92,4.46Z"/>
          <path class="cls-27" d="m.38,9.38c-.1,2.45-.17,1.65-2.62,2.44.5-.25,1.99-.95,2.1-1.32.24-.78-.09-1.14.32-1.84-.19-.75-1.48-.75-.8-1.78C.39,5.35-.41,3.13,1.51,2.34c.43-.18.24.47.74.47,0,2.06-1.78,4.35-1.88,6.56Z"/>
          <path class="cls-27" d="m48.54,34.16c.31-3.9-.55-6.01,3.58-4.51.94,1.31-1.81.21-2.11.82-.15.31,1.68,1.05,1.55,1.43-.13.38-2.11.39-2.35.8-.43.75.25,1.5.66,2.2-.5-.25-1.34-.53-1.33-.74Z"/>
          <path class="cls-27" d="m46.88,38.62c-1.29-.19-1.34.85-1.41,1.54-.02.23.61.58.55.69-.73,1.55-2.4.54-3.65.8.5,0,1.21.16,1.38-.08.95-1.38,2.83-3.57.87-5.17.96,1.23,3.15.41,3.75,2.25-.5,0-1,.05-1.5-.03Z"/>
          <path class="cls-27" d="m43.3,45.65c-1.53.07-3.27.57-4.88.19.25-.25,1.06-.75,1.31-.75.5,0,.52.75.89.62.38-.13.52-1.2.8-1.21,1.59-.09,2.97-.78,4.49-.91-.25.5-.39,1.2-.8,1.4-.61.3-1.07.63-1.82.66Z"/>
          <path class="cls-27" d="m50.25,42c-.21.45-.96-.14-1.33-.67,1.36-.91-.14-3.23,1.54-3.57.62-.12,1.33.72,2.21.57-.73,1.64-1.65,1.98-2.42,3.67Z"/>
          <path class="cls-27" d="m21.5,22.73c-1.29-.19-1.34.85-1.41,1.53-.02.22.61.58.56.69-.73,1.55-2.4.54-3.65.8.5,0,1.21.16,1.38-.08.95-1.38,2.83-3.57.87-5.17.96,1.23,3.15.41,3.75,2.25-.5,0-1,.05-1.5-.02Z"/>
          <path class="cls-27" d="m16.5,30.75c.52-1.46,1.83-1.35,3-1.5-.73,1.04-1.9,1.21-3,1.5Z"/>
          <path class="cls-27" d="m2.39,26.71c-.13.05-.46-.4-.71-.65.8-.43,1.31-2.11,2.08-1.33.74.75-.58,2.27-1.37,1.98Z"/>
          <path class="cls-27" d="m2.25,39c.48-1.06,1.43-.7,2.25-.75-.52.93-1.36.91-2.25.75Z"/>
          <path class="cls-27" d="m27.35,38.61c-.46.46-.43.61-.74.72-.84.3-1.53-.3-2.23-.7,2.57.54,3.59-1.54,3-3.75.5.25,1.33.5,1.33.75,0,1-.76,2-1.36,2.98Z"/>
          <path class="cls-27" d="m40.24,6.28c-.46.46-.44.61-.74.72-.84.3-1.53-.3-2.23-.7,2.57.54,3.59-1.54,3-3.75.5.25,1.33.5,1.33.75,0,1-.77,2-1.36,2.99Z"/>
          <path class="cls-27" d="m15.75,39.75c.15-.88-.35-1.55-.75-2.25.73-.2,1.34.2,1.4.76,0,.55-.4.99-.65,1.49Z"/>
          <path class="cls-27" d="m11.44,1.31c.15-.88-.35-1.55-.75-2.25.73-.2,1.34.2,1.4.76,0,.55-.4.99-.65,1.49Z"/>
          <path class="cls-27" d="m-1.5,37.31c.52-1.46,1.83-1.35,3-1.5-.73,1.04-1.9,1.21-3,1.5Z"/>
          <path class="cls-27" d="m2.25,1.12c-1.79-.24-.23-1.59-.75-2.25,2.19.11-.57,1.85.75,2.25Z"/>
          <path class="cls-27" d="m54.6,22.29c-.14.87-1.78,1.1-1.84,1.55-.21,1.85-.9,2.23-1.77,3.72-.25-.25-.67-.5-.67-.75,0-1,1.47-1.57,1.77-2.39.88-2.45.71-6.23,1.27-7.17.17.09,1.36-1.25,1.75-1.62l-.52,6.67Z"/>
          <path class="cls-27" d="m13.6,2.2c1.65-1.24,2.26-4.91,4.15-5.7-1.52,1.15-1.67,4.89-2.88,6.19-2.32,2.49-5.57,3.82-7.29,6.92-.62,1.12.7,2.71-.83,3.71-.26-2.43-.23-5.03,1.66-6.56,1.95-1.58,3.21-3.07,5.19-4.56Z"/>
          <path class="cls-27" d="m33.99,1.26c-.7.8-1.04,2.95-1.99,1.99-.97-.97,1.12-1.36,1.99-1.99Z"/>
          <path class="cls-27" d="m36.5,1.75c-.44.49-1.18-.08-1.32-.68-.23-.98-1.2-2.61-.08-2.98.86.81,1.93.8,3,.75-2.58-.04-.89,2.11-1.6,2.91Z"/>
          <path class="cls-27" d="m43.97,2.45c.16.3.75-.1,1.03-.45-1.06-.61.11-2.17-1.2-2.39-.48-.08-1.04.48-1.73.38.57,1.1,1.28,1.33,1.89,2.46Z"/>
          <path class="cls-27" d="m20.75,13c.52-1.46,1.83-1.35,3-1.5-.73,1.04-1.9,1.21-3,1.5Z"/>
          <path class="cls-27" d="m51,15.75c.48-1.06,1.43-.7,2.25-.75-.52.93-1.36.91-2.25.75Z"/>
          <path class="cls-27" d="m55.5,50.62c-.82-.05-2.15.29-2.06-.73.09-.96.97-1.98.46-2.97-.21-.41-.9-.55-1.4-.8-.81,2.28-3.32,3.35-3.8,5.99-.14.77-.51,2.11-1.28,1.34-.77-.77,1.1-.96,1.12-1.34.16-2.92,1.88-4.95,3.78-6.91.38-.39-.05-1.65.95-2.02.83-.31,1.72.69,2.13.5l-.06.33c-.83.46-1.51,1.12-1.84,2.2-.17.56,1.14,1.27,2.01,1.32v3.1Z"/>
          <path class="cls-27" d="m26.75,6.5c.15-.88-.35-1.55-.75-2.25.73-.2,1.34.2,1.4.76,0,.55-.4.99-.65,1.49Z"/>
          <path class="cls-27" d="m24.23,22.91c1.68.04.12,1.14.52,1.59-.18-.53-.35-1.06-.52-1.59Z"/>
          <path class="cls-27" d="m50.25,21.75c.15-.88-.35-1.55-.75-2.25.73-.2,1.34.2,1.4.76,0,.55-.4.99-.65,1.49Z"/>
          <path class="cls-27" d="m43.75,7.5c-.03-.9.56-1.49,1.06-2.12-.69-.31-1.35,0-1.49.55-.08.55.25,1.04.43,1.57Z"/>
          <path class="cls-27" d="m9.26,2.92c.75,1.64-1.22,1.04-1.51,1.83-1.08-1.91,1.87-.5,1.51-1.83Z"/>
          <path class="cls-27" d="m35.5,9c-1.59.17-.68-.91-.75-1.5.25.5.5,1,.75,1.5Z"/>
          <path class="cls-27" d="m26.02,50.35c1.26-.34.89-1.31.69-1.97-.07-.22-.79-.29-.78-.42.05-1.71,1.99-1.45,3.04-2.18-.46.2-1.18.33-1.24.62-.32,1.64-1.19,4.4,1.25,5.09-1.37-.75-3.06.87-4.33-.58.46-.2.9-.44,1.38-.57Z"/>
          <path class="cls-27" d="m11.25,24.5c-1.59.17-.68-.91-.75-1.5.25.5.5,1,.75,1.5Z"/>
          <path class="cls-27" d="m13.5,19c.48-1.06,1.43-.7,2.25-.75-.52.93-1.36.91-2.25.75Z"/>
          <path class="cls-27" d="m35,30.5c-1.59.17-.68-.91-.75-1.5.25.5.5,1,.75,1.5Z"/>
          <path class="cls-27" d="m30.48,45c.12-.59-.28-1.04-.6-1.51.58-.14,1.07.13,1.12.51,0,.37-.32.67-.52,1Z"/>
          <path class="cls-27" d="m25.07,45.26c-.45,4.31-.57,0-.82,0,.71-.28,1.75-.25,1.5-1.5-.25.5-.63.98-.68,1.51Z"/>
          <path class="cls-27" d="m9.59,39.25c2.51-.76.26-1.37,3.16-1.95,1.21.64,1.16,2.27.96,3.65-.05.32-.65,1.27-.75,1.76-.14-.54-.28-1.07-.43-1.62-.14-.55-.07-1.84-.24-1.9-1.29-.53-2.7.07-2.7.07Z"/>
          <path class="cls-27" d="m10.34,45.73c.35,1.27,1.41.79,1.96.47.46-.27.59-1.27-.06-1.45-.69-.19-1.49.83-2.38-1.34.15.78.26,1.54.47,2.32Z"/>
        </g>
        <g>
          <path class="cls-27" d="m-5.25,5.06c.2.73-.18,1.32-.76,1.4-.86.13-1.99.42-2.01.86-.08,1.58-1.19,2.56-2.47,2.99,1.2-2.3,2.92-3.81,5.17-5.37.25-.17-.05-.94.15-1.35.66-1.33,2.65.12,2.84-2.29.02-.23-.41-.49-.66-.74C-.89,1.16-1.14-1.57.75-1.69V-.19C-.13-.34-.78.19-1.51.55c-2.31,1.14.09,4.05-3.74,4.52Z"/>
          <path class="cls-27" d="m.6,22.29c-.14.87-1.78,1.1-1.84,1.55-.21,1.85-.9,2.23-1.77,3.72-.25-.25-.67-.5-.67-.75,0-1,1.47-1.57,1.77-2.39.88-2.45.71-6.23,1.27-7.17.17.09,1.36-1.25,1.75-1.62l-.52,6.67Z"/>
          <path class="cls-27" d="m1.5,50.62c-.82-.05-2.15.29-2.06-.73.09-.96.97-1.98.46-2.97-.21-.41-.9-.55-1.4-.8-.81,2.28-3.32,3.35-3.8,5.99-.14.77-.51,2.11-1.28,1.34-.77-.77,1.1-.96,1.12-1.34.16-2.92,1.88-4.95,3.78-6.91.38-.39-.05-1.65.95-2.02.83-.31,1.72.69,2.13.5l-.06.33c-.83.46-1.51,1.12-1.84,2.2-.17.56,1.14,1.27,2.01,1.32v3.1Z"/>
        </g>
      </g>
    </pattern>
    <pattern id="Burlap" x="0" y="0" width="72" height="72" patternTransform="translate(-78.07 -403.77)" patternUnits="userSpaceOnUse" viewBox="0 0 72 72">
      <g>
        <rect class="cls-3" x="0" width="72" height="72"/>
        <line class="cls-35" x1="70.33" y1="72.17" x2="85" y2="72.17"/>
        <line class="cls-35" x1="-1.67" y1="72.17" x2="13" y2="72.17"/>
        <g>
          <line class="cls-35" x1="68.5" y1="7" x2="83.16" y2="7"/>
          <line class="cls-35" x1="66.83" y1="13.67" x2="81.5" y2="13.67"/>
          <line class="cls-35" x1="70.33" y1=".17" x2="85" y2=".17"/>
          <line class="cls-35" x1="71.33" y1="31" x2="86" y2="31"/>
          <line class="cls-35" x1="75.83" y1="2.83" x2="61.16" y2="2.83"/>
          <line class="cls-35" x1="79.33" y1="8.33" x2="64.66" y2="8.33"/>
          <line class="cls-35" x1="61.5" y1="16.51" x2="76.16" y2="16.51"/>
          <line class="cls-35" x1="65.16" y1="65.51" x2="79.83" y2="65.51"/>
          <line class="cls-35" x1="61.5" y1="70.18" x2="76.16" y2="70.18"/>
          <line class="cls-35" x1="66.83" y1="68.18" x2="81.5" y2="68.18"/>
          <line class="cls-35" x1="62.16" y1="63.18" x2="76.83" y2="63.18"/>
          <line class="cls-35" x1="66.83" y1="54.51" x2="81.5" y2="54.51"/>
          <line class="cls-35" x1="63.5" y1="58.84" x2="78.16" y2="58.84"/>
          <line class="cls-35" x1="77" y1="23.33" x2="62.33" y2="23.33"/>
          <line class="cls-35" x1="77.5" y1="26.83" x2="62.83" y2="26.83"/>
          <line class="cls-35" x1="80.5" y1="28.83" x2="65.83" y2="28.83"/>
          <line class="cls-35" x1="66.16" y1="18.67" x2="80.83" y2="18.67"/>
          <line class="cls-35" x1="76.66" y1="32.84" x2="62" y2="32.84"/>
          <line class="cls-35" x1="80.66" y1="34.84" x2="66" y2="34.84"/>
          <line class="cls-35" x1="75" y1="37.17" x2="60.33" y2="37.17"/>
          <line class="cls-35" x1="63.16" y1="51.51" x2="77.83" y2="51.51"/>
          <line class="cls-35" x1="65.16" y1="47.17" x2="79.83" y2="47.17"/>
          <line class="cls-35" x1="65.16" y1="41.84" x2="79.83" y2="41.84"/>
          <line class="cls-35" x1="67.83" y1="44.51" x2="82.5" y2="44.51"/>
          <line class="cls-35" x1="69.83" y1="39.51" x2="84.5" y2="39.51"/>
        </g>
        <g>
          <line class="cls-35" x1="9.67" y1="5.67" x2="9.67" y2="20.33"/>
          <line class="cls-35" x1="12.17" y1="8.67" x2="12.17" y2="23.34"/>
          <line class="cls-35" x1="8.5" y1="18.33" x2="8.5" y2="33"/>
          <line class="cls-35" x1="15.83" y1="18.67" x2="15.83" y2="33.34"/>
          <line class="cls-35" x1="6.17" y1="11.67" x2="6.17" y2="26.34"/>
          <line class="cls-35" x1="18.17" y1="8.67" x2="18.17" y2="23.34"/>
          <line class="cls-35" x1="23.67" y1="8.67" x2="23.67" y2="23.34"/>
          <line class="cls-35" x1="25" y1="12.33" x2="25" y2="27"/>
          <line class="cls-35" x1="21.17" y1="3.17" x2="21.17" y2="17.83"/>
          <line class="cls-35" x1="14.67" y1="5.17" x2="14.67" y2="19.83"/>
          <line class="cls-35" x1="1.17" y1="11" x2="15.83" y2="11"/>
          <line class="cls-35" x1="-3.5" y1="7" x2="11.17" y2="7"/>
          <line class="cls-35" x1="-5.17" y1="13.67" x2="9.5" y2="13.67"/>
          <line class="cls-35" x1="13.17" y1="7.33" x2="27.83" y2="7.33"/>
          <line class="cls-35" x1="8" y1="9.17" x2="22.67" y2="9.17"/>
          <line class="cls-35" x1="11.67" y1="17.34" x2="26.33" y2="17.34"/>
          <line class="cls-35" x1="5" y1="14.83" x2="19.67" y2="14.83"/>
          <line class="cls-35" x1="38.5" y1="10" x2="38.5" y2="24.67"/>
          <line class="cls-35" x1="36" y1="13" x2="36" y2="27.67"/>
          <line class="cls-35" x1="42" y1="16" x2="42" y2="30.67"/>
          <line class="cls-35" x1="43.33" y1="23.34" x2="43.33" y2="38"/>
          <line class="cls-35" x1="44.67" y1="16" x2="44.67" y2="30.67"/>
          <line class="cls-35" x1="30" y1="13" x2="30" y2="27.67"/>
          <line class="cls-35" x1="19.83" y1="16.33" x2="19.83" y2="31"/>
          <line class="cls-35" x1="28.33" y1="6.5" x2="28.33" y2="21.17"/>
          <line class="cls-35" x1="26.67" y1="3.17" x2="26.67" y2="17.83"/>
          <line class="cls-35" x1="33.5" y1="8.17" x2="33.5" y2="22.84"/>
          <line class="cls-35" x1="42" y1="14.67" x2="27.33" y2="14.67"/>
          <line class="cls-35" x1="33.67" y1="12.67" x2="19" y2="12.67"/>
          <line class="cls-35" x1="42.5" y1="18.17" x2="27.83" y2="18.17"/>
          <line class="cls-35" x1="36.83" y1="22.01" x2="22.17" y2="22.01"/>
          <line class="cls-35" x1="45.5" y1="20.17" x2="30.83" y2="20.17"/>
          <line class="cls-35" x1="70.84" y1="1.17" x2="70.84" y2="15.83"/>
          <line class="cls-35" x1="66.17" y1="1.17" x2="66.17" y2="15.83"/>
          <line class="cls-35" x1="58.33" y1="1.17" x2="58.33" y2="15.83"/>
          <line class="cls-35" x1="75.83" y1="2.83" x2="61.17" y2="2.83"/>
          <line class="cls-35" x1="74.33" y1="5.33" x2="59.67" y2="5.33"/>
          <line class="cls-35" x1="70.33" y1="9.84" x2="55.67" y2="9.84"/>
          <line class="cls-35" x1="62.33" y1="8.51" x2="47.67" y2="8.51"/>
          <line class="cls-35" x1="79.33" y1="8.33" x2="64.67" y2="8.33"/>
          <line class="cls-35" x1="41.5" y1="2.5" x2="41.5" y2="17.17"/>
          <line class="cls-35" x1="46" y1="5.5" x2="46" y2="20.17"/>
          <line class="cls-35" x1="40" y1="8.5" x2="40" y2="23.17"/>
          <line class="cls-35" x1="52.67" y1="4.84" x2="52.67" y2="19.5"/>
          <line class="cls-35" x1="62.17" y1="8.83" x2="62.17" y2="23.5"/>
          <line class="cls-35" x1="55" x2="55" y2="14.67"/>
          <line class="cls-35" x1="50.16" y1="1" x2="50.16" y2="15.67"/>
          <line class="cls-35" x1="39.83" y1="2.33" x2="54.5" y2="2.33"/>
          <line class="cls-35" x1="47" y1="4.17" x2="61.67" y2="4.17"/>
          <line class="cls-35" x1="38.67" y1="5.83" x2="53.33" y2="5.83"/>
          <line class="cls-35" x1="39.5" y1="10.67" x2="54.17" y2="10.67"/>
          <line class="cls-35" x1="45.17" y1="15.51" x2="59.83" y2="15.51"/>
          <line class="cls-35" x1="48.83" y1="13.51" x2="63.5" y2="13.51"/>
          <line class="cls-35" x1="36.5" y1="12.67" x2="51.17" y2="12.67"/>
          <line class="cls-35" x1="31.5" y1="1.67" x2="31.5" y2="16.33"/>
          <line class="cls-35" x1="29.83" y1="1" x2="29.83" y2="15.67"/>
          <line class="cls-35" x1="23.83" y1="1.67" x2="23.83" y2="16.33"/>
          <line class="cls-35" x1="2" y1="38.34" x2="2" y2="53"/>
          <line class="cls-35" x1="1.5" y1="21.84" x2="1.5" y2="36.5"/>
          <line class="cls-35" x1="2.67" y1="9.83" x2="2.67" y2="24.5"/>
          <line class="cls-35" x1=".67" y1="7.33" x2=".67" y2="22"/>
          <line class="cls-35" x1="-1.67" y1=".17" x2="13" y2=".17"/>
          <line class="cls-35" x1="6.67" y1="1.83" x2="21.33" y2="1.83"/>
          <line class="cls-35" x1="1.17" y1="4.33" x2="15.83" y2="4.33"/>
          <line class="cls-35" x1="23.17" y1="5" x2="37.83" y2="5"/>
          <line class="cls-35" x1="18.17" y1="3.67" x2="32.83" y2="3.67"/>
          <line class="cls-35" x1="20.17" y1="1" x2="34.83" y2="1"/>
          <line class="cls-35" x1="25.5" y1="9.33" x2="40.17" y2="9.33"/>
          <line class="cls-35" x1="41.67" y1="24.17" x2="27" y2="24.17"/>
          <line class="cls-35" x1="45.67" y1="26.17" x2="31" y2="26.17"/>
          <line class="cls-35" x1="40" y1="28.51" x2="25.33" y2="28.51"/>
          <line class="cls-35" x1="18.17" y1="34.34" x2="18.17" y2="49"/>
          <line class="cls-35" x1="21.67" y1="40.34" x2="21.67" y2="55"/>
          <line class="cls-35" x1="16" y1="36.67" x2="1.33" y2="36.67"/>
          <line class="cls-35" x1="27" y1="40.67" x2="12.33" y2="40.67"/>
          <line class="cls-35" x1="22.17" y1="42.5" x2="7.5" y2="42.5"/>
          <line class="cls-35" x1="25.17" y1="44.5" x2="10.5" y2="44.5"/>
          <line class="cls-35" x1="38" y1="25.5" x2="38" y2="40.17"/>
          <line class="cls-35" x1="39.33" y1="31.34" x2="39.33" y2="46"/>
          <line class="cls-35" x1="23.17" y1="26.84" x2="23.17" y2="41.5"/>
          <line class="cls-35" x1="26.33" y1="21.5" x2="26.33" y2="36.17"/>
          <line class="cls-35" x1="31.67" y1="29.84" x2="31.67" y2="44.5"/>
          <line class="cls-35" x1="34.67" y1="24.34" x2="34.67" y2="39"/>
          <line class="cls-35" x1="33" y1="24" x2="33" y2="38.67"/>
          <line class="cls-35" x1="28.17" y1="26.34" x2="28.17" y2="41"/>
          <line class="cls-35" x1="24.83" y1="39.84" x2="39.5" y2="39.84"/>
          <line class="cls-35" x1="27.5" y1="41.17" x2="42.17" y2="41.17"/>
          <line class="cls-35" x1="30.17" y1="38.51" x2="44.83" y2="38.51"/>
          <line class="cls-35" x1="30.17" y1="33.17" x2="44.83" y2="33.17"/>
          <line class="cls-35" x1="32.83" y1="35.84" x2="47.5" y2="35.84"/>
          <line class="cls-35" x1="46.16" y1="33.17" x2="60.83" y2="33.17"/>
          <line class="cls-35" x1="34.83" y1="30.84" x2="49.5" y2="30.84"/>
          <line class="cls-35" x1="61.5" y1="16.51" x2="76.16" y2="16.51"/>
          <line class="cls-35" x1="45.5" y1="23.51" x2="60.16" y2="23.51"/>
          <line class="cls-35" x1="43.5" y1="21.17" x2="58.16" y2="21.17"/>
          <line class="cls-35" x1="16.17" y1="37" x2="30.83" y2="37"/>
          <line class="cls-35" x1="16.5" y1="35" x2="31.17" y2="35"/>
          <line class="cls-35" x1="30.33" y1="45.84" x2="15.67" y2="45.84"/>
          <line class="cls-35" x1="22" y1="20.84" x2="22" y2="35.5"/>
          <line class="cls-35" x1="19.83" y1="17.33" x2="19.83" y2="32"/>
          <line class="cls-35" x1="10.83" y1="26" x2="25.5" y2="26"/>
          <line class="cls-35" x1="3.83" y1="24.67" x2="18.5" y2="24.67"/>
          <line class="cls-35" x1="5.5" y1="22.67" x2="20.17" y2="22.67"/>
          <line class="cls-35" x1="4.17" y1="20" x2="18.83" y2="20"/>
          <line class="cls-35" x1="13.5" y1="20" x2="28.17" y2="20"/>
          <line class="cls-35" x1="7" y1="43.67" x2="7" y2="58.34"/>
          <line class="cls-35" x1="9.5" y1="46.67" x2="9.5" y2="61.34"/>
          <line class="cls-35" x1="5.83" y1="56.34" x2="5.83" y2="71"/>
          <line class="cls-35" x1="2.83" y1="54" x2="2.83" y2="68.67"/>
          <line class="cls-35" x1="13.17" y1="56.67" x2="13.17" y2="71.34"/>
          <line class="cls-35" x1="15.5" y1="46.67" x2="15.5" y2="61.34"/>
          <line class="cls-35" x1="25" y1="38.33" x2="25" y2="53"/>
          <line class="cls-35" x1="58.5" y1="60" x2="58.5" y2="74.67"/>
          <line class="cls-35" x1="61.33" y1="47.34" x2="61.33" y2="62"/>
          <line class="cls-35" x1="58" y1="64" x2="43.33" y2="64"/>
          <line class="cls-35" x1="62.5" y1="68.17" x2="47.83" y2="68.17"/>
          <line class="cls-35" x1="59.83" y1="70.17" x2="45.17" y2="70.17"/>
          <line class="cls-35" x1="63.83" y1="66.5" x2="49.17" y2="66.5"/>
          <line class="cls-35" x1="63.5" y1="52.5" x2="63.5" y2="67.17"/>
          <line class="cls-35" x1="60" y1="58.5" x2="60" y2="73.17"/>
          <line class="cls-35" x1="48.66" y1="47.84" x2="48.66" y2="62.5"/>
          <line class="cls-35" x1="47" y1="50.5" x2="47" y2="65.17"/>
          <line class="cls-35" x1="45" y1="56.34" x2="45" y2="71"/>
          <line class="cls-35" x1="67.16" y1="54.33" x2="67.16" y2="69"/>
          <line class="cls-35" x1="68.83" y1="48.33" x2="68.83" y2="63"/>
          <line class="cls-35" x1="71.16" y1="46" x2="71.16" y2="60.67"/>
          <line class="cls-35" x1="65.16" y1="65.51" x2="79.83" y2="65.51"/>
          <line class="cls-35" x1="61.5" y1="70.18" x2="76.16" y2="70.18"/>
          <line class="cls-35" x1="66.83" y1="68.18" x2="81.5" y2="68.18"/>
          <line class="cls-35" x1="62.16" y1="63.18" x2="76.83" y2="63.18"/>
          <line class="cls-35" x1="59.16" y1="56.51" x2="73.83" y2="56.51"/>
          <line class="cls-35" x1="66.83" y1="54.51" x2="81.5" y2="54.51"/>
          <line class="cls-35" x1="63.5" y1="58.84" x2="78.16" y2="58.84"/>
          <line class="cls-35" x1="65.33" y1="64" x2="65.33" y2="78.67"/>
          <line class="cls-35" x1="69.67" y1="61.33" x2="69.67" y2="76"/>
          <line class="cls-35" x1="3.5" y1="48.34" x2="18.17" y2="48.34"/>
          <line class="cls-35" x1="8.17" y1="67.67" x2="22.83" y2="67.67"/>
          <line class="cls-35" x1="5" y1="50.84" x2="19.67" y2="50.84"/>
          <line class="cls-35" x1="9" y1="55.34" x2="23.67" y2="55.34"/>
          <line class="cls-35" x1="20" y1="52.34" x2="34.67" y2="52.34"/>
          <line class="cls-35" x1=".83" y1="52.5" x2="15.5" y2="52.5"/>
          <line class="cls-35" x1="17.67" y1="52" x2="17.67" y2="66.67"/>
          <line class="cls-35" x1="32.33" y1="49.67" x2="17.67" y2="49.67"/>
          <line class="cls-35" x1="34.17" y1="60.01" x2="19.5" y2="60.01"/>
          <line class="cls-35" x1="35.83" y1="61.68" x2="21.17" y2="61.68"/>
          <line class="cls-35" x1="34.34" y1="56.68" x2="19.67" y2="56.68"/>
          <line class="cls-35" x1="39" y1="54.01" x2="24.33" y2="54.01"/>
          <line class="cls-35" x1="19.33" y1="58.84" x2="19.33" y2="73.5"/>
          <line class="cls-35" x1="12.5" y1="38" x2="12.5" y2="52.67"/>
          <line class="cls-35" x1="10.83" y1="32.67" x2="10.83" y2="47.34"/>
          <line class="cls-35" x1="13.83" y1="29.67" x2="13.83" y2="44.34"/>
          <line class="cls-35" x1="8.5" y1="31.34" x2="8.5" y2="46"/>
          <line class="cls-35" x1="4.83" y1="32.34" x2="4.83" y2="47"/>
          <line class="cls-35" x1="6.83" y1="27.67" x2="6.83" y2="42.34"/>
          <line class="cls-35" x1="8.17" y1="64" x2="22.83" y2="64"/>
          <line class="cls-35" x1="1" y1="62.34" x2="15.67" y2="62.34"/>
          <line class="cls-35" x1="2.83" y1="60.67" x2="17.5" y2="60.67"/>
          <line class="cls-35" x1="29.5" y1="50" x2="29.5" y2="64.67"/>
          <line class="cls-35" x1="26.49" y1="43" x2="26.49" y2="57.67"/>
          <line class="cls-35" x1="25.83" y1="59.67" x2="25.83" y2="74.34"/>
          <line class="cls-35" x1="33.17" y1="60" x2="33.17" y2="74.67"/>
          <line class="cls-35" x1="23.5" y1="53" x2="23.5" y2="67.67"/>
          <line class="cls-35" x1="35.5" y1="50" x2="35.5" y2="64.67"/>
          <line class="cls-35" x1="31" y1="58.84" x2="31" y2="73.5"/>
          <line class="cls-35" x1="28" y1="54.84" x2="28" y2="69.5"/>
          <line class="cls-35" x1="28.17" y1="71" x2="42.83" y2="71"/>
          <line class="cls-35" x1="30.17" y1="68.67" x2="44.83" y2="68.67"/>
          <line class="cls-35" x1="37.17" y1="57.67" x2="37.17" y2="72.34"/>
          <line class="cls-35" x1="32.5" y1="45.34" x2="32.5" y2="60"/>
          <line class="cls-35" x1="55" y1="57.67" x2="55" y2="72.34"/>
          <line class="cls-35" x1="48" y1="65.67" x2="48" y2="80.34"/>
          <line class="cls-35" x1="34.17" y1="40.67" x2="34.17" y2="55.34"/>
          <line class="cls-35" x1="28.17" y1="67.34" x2="42.83" y2="67.34"/>
          <line class="cls-35" x1="21.17" y1="66" x2="35.83" y2="66"/>
          <line class="cls-35" x1="13.17" y1="69.34" x2="27.83" y2="69.34"/>
          <line class="cls-35" x1="7.83" y1="70.67" x2="22.5" y2="70.67"/>
          <line class="cls-35" x1="22.83" y1="64" x2="37.5" y2="64"/>
          <line class="cls-35" x1="1.5" y1="58" x2="16.17" y2="58"/>
          <line class="cls-35" x1="10.83" y1="58" x2="25.5" y2="58"/>
          <line class="cls-35" x1="16.5" y1="30.84" x2="31.17" y2="30.84"/>
          <line class="cls-35" x1="7.83" y1="28" x2="22.5" y2="28"/>
          <line class="cls-35" x1="6.67" y1="33.34" x2="21.33" y2="33.34"/>
          <line class="cls-35" x1="-.67" y1="31" x2="14" y2="31"/>
          <line class="cls-35" x1="47.17" y1="17.33" x2="47.17" y2="32"/>
          <line class="cls-35" x1="50.83" y1="27.34" x2="50.83" y2="42"/>
          <line class="cls-35" x1="52.82" y1="20" x2="52.82" y2="34.67"/>
          <line class="cls-35" x1="58.67" y1="17.33" x2="58.67" y2="32"/>
          <line class="cls-35" x1="60" y1="21" x2="60" y2="35.67"/>
          <line class="cls-35" x1="56.17" y1="11.83" x2="56.17" y2="26.5"/>
          <line class="cls-35" x1="48.67" y1="13.83" x2="48.67" y2="28.5"/>
          <line class="cls-35" x1="46.67" y1="26.01" x2="61.33" y2="26.01"/>
          <line class="cls-35" x1="40.33" y1="48.34" x2="40.33" y2="63"/>
          <line class="cls-35" x1="41.67" y1="55.67" x2="41.67" y2="70.34"/>
          <line class="cls-35" x1="38.34" y1="45.34" x2="38.34" y2="60"/>
          <line class="cls-35" x1="43" y1="48.34" x2="43" y2="63"/>
          <line class="cls-35" x1="65" y1="21.67" x2="65" y2="36.34"/>
          <line class="cls-35" x1="54.83" y1="25" x2="54.83" y2="39.67"/>
          <line class="cls-35" x1="63.33" y1="15.17" x2="63.33" y2="29.84"/>
          <line class="cls-35" x1="67" y1="10.5" x2="67" y2="25.17"/>
          <line class="cls-35" x1="68.51" y1="12.67" x2="68.51" y2="27.33"/>
          <line class="cls-35" x1="70.5" y1="17.5" x2="70.5" y2="32.17"/>
          <line class="cls-35" x1="77" y1="23.33" x2="62.33" y2="23.33"/>
          <line class="cls-35" x1="70" y1="20.33" x2="55.33" y2="20.33"/>
          <line class="cls-35" x1="64.33" y1="18" x2="49.67" y2="18"/>
          <line class="cls-35" x1="68.67" y1="11.67" x2="54" y2="11.67"/>
          <line class="cls-35" x1="77.5" y1="26.83" x2="62.83" y2="26.83"/>
          <line class="cls-35" x1="71.83" y1="30.67" x2="57.17" y2="30.67"/>
          <line class="cls-35" x1="80.5" y1="28.83" x2="65.83" y2="28.83"/>
          <line class="cls-35" x1="41.83" y1="34.84" x2="41.83" y2="49.5"/>
          <line class="cls-35" x1="44.33" y1="37.84" x2="44.33" y2="52.5"/>
          <line class="cls-35" x1="59.67" y1="40.84" x2="59.67" y2="55.5"/>
          <line class="cls-35" x1="46.83" y1="34.34" x2="46.83" y2="49"/>
          <line class="cls-35" x1="37.83" y1="43" x2="52.5" y2="43"/>
          <line class="cls-35" x1="43.5" y1="47.84" x2="58.17" y2="47.84"/>
          <line class="cls-35" x1="66.17" y1="18.67" x2="80.83" y2="18.67"/>
          <line class="cls-35" x1="76.67" y1="32.84" x2="62" y2="32.84"/>
          <line class="cls-35" x1="80.67" y1="34.84" x2="66" y2="34.84"/>
          <line class="cls-35" x1="75" y1="37.17" x2="60.33" y2="37.17"/>
          <line class="cls-35" x1="53.17" y1="43" x2="53.17" y2="57.67"/>
          <line class="cls-35" x1="56.67" y1="49" x2="56.67" y2="63.67"/>
          <line class="cls-35" x1="52.67" y1="56.67" x2="52.67" y2="71.33"/>
          <line class="cls-35" x1="50.33" y1="54.34" x2="50.33" y2="69"/>
          <line class="cls-35" x1="60.17" y1="53.17" x2="45.5" y2="53.17"/>
          <line class="cls-35" x1="52.17" y1="50.5" x2="37.5" y2="50.5"/>
          <line class="cls-35" x1="41.83" y1="47.5" x2="27.17" y2="47.5"/>
          <line class="cls-35" x1="52" y1="31.84" x2="52" y2="46.5"/>
          <line class="cls-35" x1="39" y1="63.67" x2="39" y2="78.34"/>
          <line class="cls-35" x1="65" y1="46.84" x2="65" y2="61.5"/>
          <line class="cls-35" x1="58.16" y1="35.5" x2="58.16" y2="50.17"/>
          <line class="cls-35" x1="61.33" y1="30.17" x2="61.33" y2="44.83"/>
          <line class="cls-35" x1="54.66" y1="41.5" x2="54.66" y2="56.17"/>
          <line class="cls-35" x1="66.66" y1="38.5" x2="66.66" y2="53.17"/>
          <line class="cls-35" x1="69.66" y1="33" x2="69.66" y2="47.67"/>
          <line class="cls-35" x1="68" y1="32.67" x2="68" y2="47.34"/>
          <line class="cls-35" x1="63.16" y1="35" x2="63.16" y2="49.67"/>
          <line class="cls-35" x1="59.83" y1="48.51" x2="74.5" y2="48.51"/>
          <line class="cls-35" x1="63.17" y1="51.51" x2="77.83" y2="51.51"/>
          <line class="cls-35" x1="65.16" y1="47.17" x2="79.83" y2="47.17"/>
          <line class="cls-35" x1="65.16" y1="41.84" x2="79.83" y2="41.84"/>
          <line class="cls-35" x1="67.83" y1="44.51" x2="82.5" y2="44.51"/>
          <line class="cls-35" x1="69.83" y1="39.51" x2="84.5" y2="39.51"/>
          <line class="cls-35" x1="38.17" y1="61.84" x2="52.83" y2="61.84"/>
          <line class="cls-35" x1="42.5" y1="59.18" x2="57.16" y2="59.18"/>
          <line class="cls-35" x1="41.83" y1="54.51" x2="56.5" y2="54.51"/>
          <line class="cls-35" x1="26.17" y1="44.51" x2="40.83" y2="44.51"/>
          <line class="cls-35" x1="51.16" y1="45.67" x2="65.83" y2="45.67"/>
          <line class="cls-35" x1="51.5" y1="43.67" x2="66.16" y2="43.67"/>
          <line class="cls-35" x1="57" y1="29.5" x2="57" y2="44.17"/>
          <line class="cls-35" x1="54.83" y1="26" x2="54.83" y2="40.67"/>
          <line class="cls-35" x1="48.5" y1="31.67" x2="48.5" y2="46.34"/>
          <line class="cls-35" x1="45.83" y1="37.34" x2="60.5" y2="37.34"/>
          <line class="cls-35" x1="48.5" y1="28.67" x2="63.17" y2="28.67"/>
          <line class="cls-35" x1="51.5" y1="39.51" x2="66.17" y2="39.51"/>
          <line class="cls-35" x1="68.5" y1="7" x2="83.17" y2="7"/>
          <line class="cls-35" x1="66.83" y1="13.67" x2="81.5" y2="13.67"/>
          <line class="cls-35" x1="3.83" y1="2.83" x2="-10.83" y2="2.83"/>
          <line class="cls-35" x1="7.33" y1="8.33" x2="-7.33" y2="8.33"/>
          <line class="cls-35" x1="-10.5" y1="16.51" x2="4.16" y2="16.51"/>
          <line class="cls-35" x1="-6.83" y1="65.51" x2="7.83" y2="65.51"/>
          <line class="cls-35" x1="-10.5" y1="70.18" x2="4.17" y2="70.18"/>
          <line class="cls-35" x1="-5.17" y1="68.18" x2="9.5" y2="68.18"/>
          <line class="cls-35" x1="-9.83" y1="63.18" x2="4.83" y2="63.18"/>
          <line class="cls-35" x1="-5.17" y1="54.51" x2="9.5" y2="54.51"/>
          <line class="cls-35" x1="-8.5" y1="58.84" x2="6.17" y2="58.84"/>
          <line class="cls-35" x1="5" y1="23.33" x2="-9.67" y2="23.33"/>
          <line class="cls-35" x1="5.5" y1="26.83" x2="-9.17" y2="26.83"/>
          <line class="cls-35" x1="8.5" y1="28.83" x2="-6.17" y2="28.83"/>
          <line class="cls-35" x1="-5.83" y1="18.67" x2="8.83" y2="18.67"/>
          <line class="cls-35" x1="4.67" y1="32.84" x2="-10" y2="32.84"/>
          <line class="cls-35" x1="8.67" y1="34.84" x2="-6" y2="34.84"/>
          <line class="cls-35" x1="3" y1="37.17" x2="-11.67" y2="37.17"/>
          <line class="cls-35" x1="-8.83" y1="51.51" x2="5.83" y2="51.51"/>
          <line class="cls-35" x1="-6.83" y1="47.17" x2="7.83" y2="47.17"/>
          <line class="cls-35" x1="-6.83" y1="41.84" x2="7.83" y2="41.84"/>
          <line class="cls-35" x1="-4.17" y1="44.51" x2="10.5" y2="44.51"/>
          <line class="cls-35" x1="-2.17" y1="39.51" x2="12.5" y2="39.51"/>
          <line class="cls-35" x1="13" y1="64.84" x2="13" y2="79.5"/>
          <line class="cls-35" x1="10.33" y1="62.5" x2="10.33" y2="77.17"/>
          <line class="cls-35" x1="63.33" y1="68.34" x2="63.33" y2="83"/>
          <line class="cls-35" x1="60.83" y1="67.67" x2="60.83" y2="82.34"/>
          <line class="cls-35" x1="37.5" y1="68.34" x2="37.5" y2="83"/>
          <line class="cls-35" x1="68.67" y1="68.34" x2="68.67" y2="83"/>
          <line class="cls-35" x1="43.17" y1="66.5" x2="43.17" y2="81.17"/>
          <line class="cls-35" x1="16.83" y1="67.67" x2="16.83" y2="82.34"/>
          <line class="cls-35" x1="1.83" y1="67.5" x2="1.83" y2="82.17"/>
          <line class="cls-35" x1="6.83" y1="65.5" x2="6.83" y2="80.17"/>
          <line class="cls-35" x1="34.83" y1="68.34" x2="34.83" y2="83"/>
          <line class="cls-35" x1="58.5" y1="60" x2="58.5" y2="74.67"/>
          <line class="cls-35" x1="33.17" y1="60" x2="33.17" y2="74.67"/>
        </g>
        <g>
          <line class="cls-35" x1="3.83" y1="2.83" x2="-10.83" y2="2.83"/>
          <line class="cls-35" x1="2.33" y1="5.33" x2="-12.33" y2="5.33"/>
          <line class="cls-35" x1="7.33" y1="8.33" x2="-7.33" y2="8.33"/>
          <line class="cls-35" x1="-10.5" y1="16.51" x2="4.17" y2="16.51"/>
          <line class="cls-35" x1="-6.83" y1="65.51" x2="7.83" y2="65.51"/>
          <line class="cls-35" x1="-10.5" y1="70.18" x2="4.17" y2="70.18"/>
          <line class="cls-35" x1="-5.17" y1="68.18" x2="9.5" y2="68.18"/>
          <line class="cls-35" x1="-9.83" y1="63.18" x2="4.83" y2="63.18"/>
          <line class="cls-35" x1="-12.83" y1="56.51" x2="1.83" y2="56.51"/>
          <line class="cls-35" x1="-5.17" y1="54.51" x2="9.5" y2="54.51"/>
          <line class="cls-35" x1="-8.5" y1="58.84" x2="6.17" y2="58.84"/>
          <line class="cls-35" x1="5" y1="23.33" x2="-9.67" y2="23.33"/>
          <line class="cls-35" x1="5.5" y1="26.83" x2="-9.17" y2="26.83"/>
          <line class="cls-35" x1="8.5" y1="28.83" x2="-6.17" y2="28.83"/>
          <line class="cls-35" x1="-5.83" y1="18.67" x2="8.83" y2="18.67"/>
          <line class="cls-35" x1="4.67" y1="32.84" x2="-10" y2="32.84"/>
          <line class="cls-35" x1="8.67" y1="34.84" x2="-6" y2="34.84"/>
          <line class="cls-35" x1="3" y1="37.17" x2="-11.67" y2="37.17"/>
          <line class="cls-35" x1="-12.17" y1="48.51" x2="2.5" y2="48.51"/>
          <line class="cls-35" x1="-8.83" y1="51.51" x2="5.83" y2="51.51"/>
          <line class="cls-35" x1="-6.83" y1="47.17" x2="7.83" y2="47.17"/>
          <line class="cls-35" x1="-6.83" y1="41.84" x2="7.83" y2="41.84"/>
          <line class="cls-35" x1="-4.17" y1="44.51" x2="10.5" y2="44.51"/>
          <line class="cls-35" x1="-2.17" y1="39.51" x2="12.5" y2="39.51"/>
          <line class="cls-35" x1="-3.5" y1="7" x2="11.17" y2="7"/>
          <line class="cls-35" x1="-5.17" y1="13.67" x2="9.5" y2="13.67"/>
        </g>
        <g>
          <line class="cls-35" x1="58.5" y1="-12" x2="58.5" y2="2.67"/>
          <line class="cls-35" x1="60" y1="-13.5" x2="60" y2="1.17"/>
          <line class="cls-35" x1="65.33" y1="-8" x2="65.33" y2="6.67"/>
          <line class="cls-35" x1="69.67" y1="-10.67" x2="69.67" y2="4"/>
          <line class="cls-35" x1="19.33" y1="-13.17" x2="19.33" y2="1.5"/>
          <line class="cls-35" x1="25.83" y1="-12.33" x2="25.83" y2="2.33"/>
          <line class="cls-35" x1="33.17" y1="-12" x2="33.17" y2="2.67"/>
          <line class="cls-35" x1="31" y1="-13.17" x2="31" y2="1.5"/>
          <line class="cls-35" x1="37.17" y1="-14.33" x2="37.17" y2=".33"/>
          <line class="cls-35" x1="55" y1="-14.33" x2="55" y2=".33"/>
          <line class="cls-35" x1="48" y1="-6.33" x2="48" y2="8.33"/>
          <line class="cls-35" x1="39" y1="-8.33" x2="39" y2="6.33"/>
          <line class="cls-35" x1="13" y1="-7.17" x2="13" y2="7.5"/>
          <line class="cls-35" x1="10.33" y1="-9.5" x2="10.33" y2="5.17"/>
          <line class="cls-35" x1="63.33" y1="-3.67" x2="63.33" y2="11"/>
          <line class="cls-35" x1="60.83" y1="-4.33" x2="60.83" y2="10.33"/>
          <line class="cls-35" x1="37.5" y1="-3.67" x2="37.5" y2="11"/>
          <line class="cls-35" x1="68.67" y1="-3.67" x2="68.67" y2="11"/>
          <line class="cls-35" x1="43.17" y1="-5.5" x2="43.17" y2="9.17"/>
          <line class="cls-35" x1="16.83" y1="-4.33" x2="16.83" y2="10.33"/>
          <line class="cls-35" x1="1.83" y1="-4.5" x2="1.83" y2="10.17"/>
          <line class="cls-35" x1="6.83" y1="-6.5" x2="6.83" y2="8.17"/>
          <line class="cls-35" x1="34.83" y1="-3.67" x2="34.83" y2="11"/>
          <line class="cls-35" x1="58.5" y1="-12" x2="58.5" y2="2.67"/>
          <line class="cls-35" x1="33.17" y1="-12" x2="33.17" y2="2.67"/>
        </g>
      </g>
    </pattern>
    <linearGradient id="linear-gradient-2" x1="258.22" y1="26.29" x2="299.46" y2="26.29" gradientUnits="userSpaceOnUse">
      <stop offset="0" stop-color="#ffeb76"/>
      <stop offset=".25" stop-color="#996c22"/>
      <stop offset=".35" stop-color="#c3912f"/>
      <stop offset="1" stop-color="#fffa85"/>
    </linearGradient>
    <linearGradient id="linear-gradient-3" x1="273.91" x2="315.14" xlink:href="#linear-gradient-2"/>
    <linearGradient id="linear-gradient-4" x1="326.17" x2="367.4" xlink:href="#linear-gradient-2"/>
    <linearGradient id="linear-gradient-5" x1="341.85" x2="383.09" xlink:href="#linear-gradient-2"/>
    <linearGradient id="linear-gradient-6" x1="378.5" y1="26.13" x2="508.89" y2="26.13" xlink:href="#linear-gradient-2"/>
    <linearGradient id="linear-gradient-7" x1="131.97" y1="26.13" x2="262.35" y2="26.13" xlink:href="#linear-gradient-2"/>
    <linearGradient id="linear-gradient-8" x1="502.31" y1="26.13" x2="523.17" y2="26.13" xlink:href="#linear-gradient-2"/>
    <linearGradient id="linear-gradient-9" x1="117.8" y1="26.13" x2="138.66" y2="26.13" xlink:href="#linear-gradient-2"/>
    <linearGradient id="linear-gradient-10" x1="306.8" y1="19.09" x2="334.38" y2="19.09" xlink:href="#linear-gradient-2"/>
    <linearGradient id="linear-gradient-11" x1="306.8" y1="33.62" x2="334.38" y2="33.62" xlink:href="#linear-gradient-2"/>
    <linearGradient id="linear-gradient-12" x1="273.91" x2="315.14" xlink:href="#linear-gradient-2"/>
    <linearGradient id="linear-gradient-13" x1="326.17" x2="367.4" xlink:href="#linear-gradient-2"/>
    <linearGradient id="linear-gradient-14" x1="341.85" x2="383.09" xlink:href="#linear-gradient-2"/>
    <linearGradient id="linear-gradient-15" x1="378.5" y1="26.13" x2="508.89" y2="26.13" xlink:href="#linear-gradient-2"/>
    <linearGradient id="linear-gradient-16" x1="131.97" y1="26.13" x2="262.35" y2="26.13" xlink:href="#linear-gradient-2"/>
    <linearGradient id="linear-gradient-17" x1="502.31" y1="26.13" x2="523.17" y2="26.13" xlink:href="#linear-gradient-2"/>
    <linearGradient id="linear-gradient-18" x1="117.8" y1="26.13" x2="138.66" y2="26.13" xlink:href="#linear-gradient-2"/>
    <linearGradient id="linear-gradient-19" x1="306.8" y1="19.09" x2="334.38" y2="19.09" xlink:href="#linear-gradient-2"/>
    <linearGradient id="linear-gradient-20" x1="306.8" y1="33.62" x2="334.38" y2="33.62" xlink:href="#linear-gradient-2"/>
  </defs>
  <g class="cls-37">
    <g id="Layer_1" data-name="Layer 1">
      <g>
        <g>
          <g>
            <g>
              <rect class="cls-29" x="232.14" y="-206.94" width="176.7" height="640.96" transform="translate(434.02 -206.95) rotate(90)"/>
              <path class="cls-17" d="m640.97,25.19v176.7H0V25.19h640.97ZM1.5,200.39h637.97V26.69H1.5v173.7Z"/>
              <path class="cls-16" d="m637.47,28.69v169.7H3.5V28.69h633.97ZM5,196.89h630.97V30.19H5v166.7Z"/>
              <rect class="cls-30" x="237.14" y="-201.94" width="166.7" height="630.96" transform="translate(434.02 -206.95) rotate(90)"/>
            </g>
            <rect class="cls-1" x="232.14" y="-206.94" width="176.7" height="640.96" transform="translate(434.02 -206.95) rotate(90)"/>
          </g>
          <rect class="cls-4" x="5.01" y="30.19" width="630.96" height="166.7"/>
          <g class="cls-32">
            <rect class="cls-18" x="5.01" y="30.19" width="630.96" height="166.7"/>
          </g>
          <g class="cls-31">
            <rect class="cls-2" x="5.01" y="30.19" width="630.96" height="166.7"/>
          </g>
        </g>
        <g>
          <g class="cls-36">
            <g>
              <path class="cls-27" d="m277.85,41.54l-19.63-12.64,19.62-12.91,21.61,12.77-21.6,12.77Zm-15.65-12.65l15.71,10.11,17.3-10.23-17.29-10.22-15.72,10.34Z"/>
              <path class="cls-27" d="m293.54,41.54l-19.63-12.64,19.62-12.91,21.61,12.77-21.6,12.77Zm-15.65-12.65l15.71,10.11,17.3-10.23-17.29-10.22-15.72,10.34Z"/>
            </g>
            <g>
              <path class="cls-27" d="m345.8,41.54l-19.63-12.64,19.62-12.91,21.61,12.77-21.6,12.77Zm-15.65-12.65l15.71,10.11,17.3-10.23-17.29-10.22-15.72,10.34Z"/>
              <path class="cls-27" d="m361.49,41.54l-19.63-12.64,19.62-12.91,21.61,12.77-21.6,12.77Zm-15.65-12.65l15.71,10.11,17.3-10.23-17.29-10.22-15.72,10.34Z"/>
            </g>
            <path class="cls-27" d="m507.74,29.66h-128.1c-.63,0-1.14-.47-1.14-1.06s.51-1.06,1.14-1.06h128.1c.63,0,1.14.47,1.14,1.06s-.51,1.06-1.14,1.06Z"/>
            <path class="cls-27" d="m261.21,29.66h-128.1c-.63,0-1.14-.47-1.14-1.06s.51-1.06,1.14-1.06h128.1c.63,0,1.14.47,1.14,1.06s-.51,1.06-1.14,1.06Z"/>
            <path class="cls-27" d="m502.31,28.68c3.58.05,9.93,6.39,9.93,6.39,0,0,4.46-6.46,10.93-6.46-6.47,0-10.93-6.46-10.93-6.46,0,0-6.34,6.48-9.93,6.53Z"/>
            <path class="cls-27" d="m138.66,28.54c-3.58-.05-9.93-6.39-9.93-6.39,0,0-4.46,6.46-10.93,6.46,6.47,0,10.93,6.46,10.93,6.46,0,0,6.34-6.48,9.93-6.53Z"/>
            <g>
              <path class="cls-27" d="m320.59,40.66l-13.79-20.01,13.64-18.18,13.94,18.17-13.79,20.01Zm-11.05-19.96l11.04,16.02,11.04-16.01-11.16-14.55-10.92,14.55Z"/>
              <path class="cls-27" d="m320.59,55.19l-13.79-20.01,13.64-18.18,13.94,18.17-13.79,20.01Zm-11.05-19.96l11.04,16.02,11.04-16.01-11.16-14.55-10.92,14.55Z"/>
            </g>
          </g>
          <g>
            <g>
              <path class="cls-28" d="m277.85,39.07l-19.63-12.64,19.62-12.91,21.61,12.77-21.6,12.77Zm-15.65-12.65l15.71,10.11,17.3-10.23-17.29-10.22-15.72,10.34Z"/>
              <path class="cls-28" d="m293.54,39.07l-19.63-12.64,19.62-12.91,21.61,12.77-21.6,12.77Zm-15.65-12.65l15.71,10.11,17.3-10.23-17.29-10.22-15.72,10.34Z"/>
            </g>
            <g>
              <path class="cls-28" d="m345.8,39.07l-19.63-12.64,19.62-12.91,21.61,12.77-21.6,12.77Zm-15.65-12.65l15.71,10.11,17.3-10.23-17.29-10.22-15.72,10.34Z"/>
              <path class="cls-28" d="m361.49,39.07l-19.63-12.64,19.62-12.91,21.61,12.77-21.6,12.77Zm-15.65-12.65l15.71,10.11,17.3-10.23-17.29-10.22-15.72,10.34Z"/>
            </g>
            <path class="cls-28" d="m507.74,27.19h-128.1c-.63,0-1.14-.47-1.14-1.06s.51-1.06,1.14-1.06h128.1c.63,0,1.14.47,1.14,1.06s-.51,1.06-1.14,1.06Z"/>
            <path class="cls-28" d="m261.21,27.19h-128.1c-.63,0-1.14-.47-1.14-1.06s.51-1.06,1.14-1.06h128.1c.63,0,1.14.47,1.14,1.06s-.51,1.06-1.14,1.06Z"/>
            <path class="cls-28" d="m502.31,26.2c3.58.05,9.93,6.39,9.93,6.39,0,0,4.46-6.46,10.93-6.46-6.47,0-10.93-6.46-10.93-6.46,0,0-6.34,6.48-9.93,6.53Z"/>
            <path class="cls-28" d="m138.66,26.06c-3.58-.05-9.93-6.39-9.93-6.39,0,0-4.46,6.46-10.93,6.46,6.47,0,10.93,6.46,10.93,6.46,0,0,6.34-6.48,9.93-6.53Z"/>
            <g>
              <path class="cls-28" d="m320.59,38.19l-13.79-20.01,13.64-18.18,13.94,18.17-13.79,20.01Zm-11.05-19.96l11.04,16.02,11.04-16.01-11.16-14.55-10.92,14.55Z"/>
              <path class="cls-28" d="m320.59,52.72l-13.79-20.01,13.64-18.18,13.94,18.17-13.79,20.01Zm-11.05-19.96l11.04,16.02,11.04-16.01-11.16-14.55-10.92,14.55Z"/>
            </g>
          </g>
          <g class="cls-34">
            <g>
              <path class="cls-20" d="m277.85,39.07l-19.63-12.64,19.62-12.91,21.61,12.77-21.6,12.77Zm-15.65-12.65l15.71,10.11,17.3-10.23-17.29-10.22-15.72,10.34Z"/>
              <path class="cls-21" d="m293.54,39.07l-19.63-12.64,19.62-12.91,21.61,12.77-21.6,12.77Zm-15.65-12.65l15.71,10.11,17.3-10.23-17.29-10.22-15.72,10.34Z"/>
            </g>
            <g>
              <path class="cls-19" d="m345.8,39.07l-19.63-12.64,19.62-12.91,21.61,12.77-21.6,12.77Zm-15.65-12.65l15.71,10.11,17.3-10.23-17.29-10.22-15.72,10.34Z"/>
              <path class="cls-25" d="m361.49,39.07l-19.63-12.64,19.62-12.91,21.61,12.77-21.6,12.77Zm-15.65-12.65l15.71,10.11,17.3-10.23-17.29-10.22-15.72,10.34Z"/>
            </g>
            <path class="cls-26" d="m507.74,27.19h-128.1c-.63,0-1.14-.47-1.14-1.06s.51-1.06,1.14-1.06h128.1c.63,0,1.14.47,1.14,1.06s-.51,1.06-1.14,1.06Z"/>
            <path class="cls-24" d="m261.21,27.19h-128.1c-.63,0-1.14-.47-1.14-1.06s.51-1.06,1.14-1.06h128.1c.63,0,1.14.47,1.14,1.06s-.51,1.06-1.14,1.06Z"/>
            <path class="cls-22" d="m502.31,26.2c3.58.05,9.93,6.39,9.93,6.39,0,0,4.46-6.46,10.93-6.46-6.47,0-10.93-6.46-10.93-6.46,0,0-6.34,6.48-9.93,6.53Z"/>
            <path class="cls-23" d="m138.66,26.06c-3.58-.05-9.93-6.39-9.93-6.39,0,0-4.46,6.46-10.93,6.46,6.47,0,10.93,6.46,10.93,6.46,0,0,6.34-6.48,9.93-6.53Z"/>
            <g>
              <path class="cls-8" d="m320.59,38.19l-13.79-20.01,13.64-18.18,13.94,18.17-13.79,20.01Zm-11.05-19.96l11.04,16.02,11.04-16.01-11.16-14.55-10.92,14.55Z"/>
              <path class="cls-5" d="m320.59,52.72l-13.79-20.01,13.64-18.18,13.94,18.17-13.79,20.01Zm-11.05-19.96l11.04,16.02,11.04-16.01-11.16-14.55-10.92,14.55Z"/>
            </g>
          </g>
          <g class="cls-33">
            <g>
              <path class="cls-20" d="m277.85,39.07l-19.63-12.64,19.62-12.91,21.61,12.77-21.6,12.77Zm-15.65-12.65l15.71,10.11,17.3-10.23-17.29-10.22-15.72,10.34Z"/>
              <path class="cls-6" d="m293.54,39.07l-19.63-12.64,19.62-12.91,21.61,12.77-21.6,12.77Zm-15.65-12.65l15.71,10.11,17.3-10.23-17.29-10.22-15.72,10.34Z"/>
            </g>
            <g>
              <path class="cls-7" d="m345.8,39.07l-19.63-12.64,19.62-12.91,21.61,12.77-21.6,12.77Zm-15.65-12.65l15.71,10.11,17.3-10.23-17.29-10.22-15.72,10.34Z"/>
              <path class="cls-14" d="m361.49,39.07l-19.63-12.64,19.62-12.91,21.61,12.77-21.6,12.77Zm-15.65-12.65l15.71,10.11,17.3-10.23-17.29-10.22-15.72,10.34Z"/>
            </g>
            <path class="cls-12" d="m507.74,27.19h-128.1c-.63,0-1.14-.47-1.14-1.06s.51-1.06,1.14-1.06h128.1c.63,0,1.14.47,1.14,1.06s-.51,1.06-1.14,1.06Z"/>
            <path class="cls-10" d="m261.21,27.19h-128.1c-.63,0-1.14-.47-1.14-1.06s.51-1.06,1.14-1.06h128.1c.63,0,1.14.47,1.14,1.06s-.51,1.06-1.14,1.06Z"/>
            <path class="cls-9" d="m502.31,26.2c3.58.05,9.93,6.39,9.93,6.39,0,0,4.46-6.46,10.93-6.46-6.47,0-10.93-6.46-10.93-6.46,0,0-6.34,6.48-9.93,6.53Z"/>
            <path class="cls-13" d="m138.66,26.06c-3.58-.05-9.93-6.39-9.93-6.39,0,0-4.46,6.46-10.93,6.46,6.47,0,10.93,6.46,10.93,6.46,0,0,6.34-6.48,9.93-6.53Z"/>
            <g>
              <path class="cls-11" d="m320.59,38.19l-13.79-20.01,13.64-18.18,13.94,18.17-13.79,20.01Zm-11.05-19.96l11.04,16.02,11.04-16.01-11.16-14.55-10.92,14.55Z"/>
              <path class="cls-15" d="m320.59,52.72l-13.79-20.01,13.64-18.18,13.94,18.17-13.79,20.01Zm-11.05-19.96l11.04,16.02,11.04-16.01-11.16-14.55-10.92,14.55Z"/>
            </g>
          </g>
        </g>
      </g>
    </g>
  </g>
</svg>